# xmcd
#
# Track frame offsets: 
#        150
#        15372
#        26102
#        37527
#        50069
#        63053
#        76873
#        94608
#        110184
#        126304
#        138565
#        150317
#        167437
#
# Disc length: 2398 seconds
#
# Revision: 0
# Processed by: cddbd v1.5.2PL0 Copyright (c) Steve Scherf et al.
# Submitted via: ExactAudioCopy v0.99pb4
#
DISCID=96095c0d
DTITLE=Neil Findlay and Peter Parnham - Stop and Listen
DYEAR=2008
DGENRE=Blues
TTITLE0=Stop and Listen
TTITLE1=This World Is a Hard Place TO Live In
TTITLE2=I Feel So BAd
TTITLE3=Mississippi River Blues
TTITLE4=You Never Can Tell
TTITLE5=Highway 51
TTITLE6=Milk Cow Blues
TTITLE7=Walking My Blues Away
TTITLE8=Five Long Years
TTITLE9=We Gonna Move
TTITLE10=Steady Rolling Man
TTITLE11=In The Evening
TTITLE12=Let The Mermaids Flirt With Me
EXTD=
EXTT0=
EXTT1=
EXTT2=
EXTT3=
EXTT4=
EXTT5=
EXTT6=
EXTT7=
EXTT8=
EXTT9=
EXTT10=
EXTT11=
EXTT12=
PLAYORDER=
